<svg xmlns="http://www.w3.org/2000/svg" version="1.1" xmlns:xlink="http://www.w3.org/1999/xlink" width="48" height="48"><svg width="48" height="48" viewBox="0 0 48 48" fill="none" xmlns="http://www.w3.org/2000/svg">
<g clip-path="url(#clip0_139_52)">
<path d="M19 18H19.02M29 18H29.02M36 8C37.5913 8 39.1174 8.63214 40.2426 9.75736C41.3679 10.8826 42 12.4087 42 14V30C42 31.5913 41.3679 33.1174 40.2426 34.2426C39.1174 35.3679 37.5913 36 36 36H26L16 42V36H12C10.4087 36 8.88258 35.3679 7.75736 34.2426C6.63214 33.1174 6 31.5913 6 30V14C6 12.4087 6.63214 10.8826 7.75736 9.75736C8.88258 8.63214 10.4087 8 12 8H36Z" stroke="#3EA1D9" stroke-width="4" stroke-linecap="round" stroke-linejoin="round"></path>
<path d="M19 26C19.6518 26.6652 20.4297 27.1937 21.2883 27.5544C22.1468 27.9152 23.0687 28.101 24 28.101C24.9313 28.101 25.8532 27.9152 26.7117 27.5544C27.5703 27.1937 28.3482 26.6652 29 26" stroke="#3EA1D9" stroke-width="4" stroke-linecap="round" stroke-linejoin="round"></path>
</g>
<defs>
<clipPath id="SvgjsClipPath1030">
<rect width="48" height="48" fill="white"></rect>
</clipPath>
</defs>
</svg><style>@media (prefers-color-scheme: light) { :root { filter: none; } }
@media (prefers-color-scheme: dark) { :root { filter: none; } }
</style></svg>